ply
format ascii 1.0
element vertex 28
property float x
property float y
property float z
end_header
-0.500000 -0.500000 -0.500000
0.500000 -0.500000 -0.500000
0.500000 0.500000 -0.500000
-0.500000 0.500000 -0.500000
-0.500000 -0.500000 0.500000
0.500000 -0.500000 0.500000
0.500000 0.500000 0.500000
-0.500000 0.500000 0.500000
-0.125460 0.450714 0.231994
0.098658 -0.343981 -0.344005
-0.441916 0.366176 0.101115
0.208073 -0.479416 0.469910
0.332443 -0.287661 -0.318175
-0.316595 -0.195758 0.024756
-0.068055 -0.208771 0.111853
-0.360506 -0.207855 -0.133638
-0.043930 0.285176 -0.300326
0.014234 0.092415 -0.453550
0.107545 -0.329476 -0.434948
0.448886 0.465632 0.308397
-0.195386 -0.402328 0.184233
-0.059848 -0.377962 -0.004823
-0.465611 0.409320 -0.241220
0.162522 -0.188289 0.020068
0.046710 -0.315146 0.469585
0.275133 0.439499 0.394827
0.097900 0.421874 -0.411507
-0.304017 -0.454773 -0.174670
